<svg width="176" height="28" viewBox="0 0 176 28" fill="none" xmlns="http://www.w3.org/2000/svg">
<path d="M30.88 20C30.72 20 30.5867 19.9567 30.48 19.87L28.9 18.42L27.23 16.3C27.1567 16.2067 27.11 16.1467 27.09 16.12C27.07 16.0933 27.06 16.0333 27.06 15.94V10.72C27.06 10.6267 27.07 10.5667 27.09 10.54C27.11 10.5067 27.1567 10.4467 27.23 10.36L28.75 8.43L30.48 6.8C30.5467 6.74 30.6033 6.70333 30.65 6.69C30.6967 6.67667 30.7733 6.67 30.88 6.67H33.38C33.5467 6.67 33.63 6.75333 33.63 6.92V8.64C33.63 8.69333 33.6233 8.75 33.61 8.81C33.6033 8.86333 33.57 8.91 33.51 8.95L31.69 10.24L30.48 11.77V14.92L31.72 16.46L33.51 17.73C33.5633 17.7633 33.5967 17.8033 33.61 17.85C33.6233 17.8967 33.63 17.9467 33.63 18V19.75C33.63 19.9167 33.5467 20 33.38 20H30.88ZM37.9503 20C37.797 20 37.6636 19.9433 37.5503 19.83L35.5503 17.83C35.437 17.7233 35.3803 17.59 35.3803 17.43V11.57C35.3803 11.41 35.437 11.2767 35.5503 11.17L37.5503 9.17C37.6636 9.05667 37.797 9 37.9503 9H40.9803C41.1403 9 41.2736 9.05667 41.3803 9.17L43.3803 11.17C43.4936 11.2767 43.5503 11.41 43.5503 11.57V17.43C43.5503 17.59 43.4936 17.7233 43.3803 17.83L41.3803 19.83C41.2736 19.9433 41.1403 20 40.9803 20H37.9503ZM39.1503 17.57H39.7803C39.987 17.57 40.127 17.5267 40.2003 17.44C40.2803 17.3533 40.3203 17.2033 40.3203 16.99V12.01C40.3203 11.7967 40.2803 11.6467 40.2003 11.56C40.127 11.4733 39.987 11.43 39.7803 11.43H39.1503C38.937 11.43 38.7903 11.4733 38.7103 11.56C38.637 11.6467 38.6003 11.7967 38.6003 12.01V16.99C38.6003 17.2033 38.637 17.3533 38.7103 17.44C38.7903 17.5267 38.937 17.57 39.1503 17.57ZM48.2238 20C48.0704 20 47.9371 19.9433 47.8238 19.83L45.8238 17.83C45.7104 17.7233 45.6538 17.59 45.6538 17.43V11.57C45.6538 11.41 45.7104 11.2767 45.8238 11.17L47.8238 9.17C47.9371 9.05667 48.0704 9 48.2238 9H49.6938C49.8538 9 49.9871 9.05667 50.0938 9.17L50.5938 9.67V6.92C50.5938 6.75333 50.6771 6.67 50.8438 6.67H53.5738C53.7404 6.67 53.8238 6.75333 53.8238 6.92V19.75C53.8238 19.9167 53.7404 20 53.5738 20H51.4338C51.3471 20 51.2804 19.9833 51.2338 19.95C51.1938 19.9167 51.1471 19.8767 51.0938 19.83L50.5938 19.33L50.0938 19.83C49.9871 19.9433 49.8538 20 49.6938 20H48.2238ZM49.4238 17.57H50.0538C50.2604 17.57 50.4004 17.5267 50.4737 17.44C50.5538 17.3533 50.5938 17.2033 50.5938 16.99V11.43H49.4238C49.2171 11.43 49.0738 11.4733 48.9938 11.56C48.9138 11.6467 48.8738 11.7967 48.8738 12.01V16.99C48.8738 17.2033 48.9104 17.3533 48.9838 17.44C49.0638 17.5267 49.2104 17.57 49.4238 17.57ZM60.4272 20C60.3605 20 60.2905 19.99 60.2172 19.97C60.1439 19.95 60.0739 19.9333 60.0072 19.92L58.2272 19.44L56.2072 18.74C56.0205 18.6733 55.9272 18.4867 55.9272 18.18V11.57C55.9272 11.41 55.9839 11.2767 56.0972 11.17L58.0972 9.17C58.2105 9.05667 58.3439 9 58.4972 9H61.6772C61.8305 9 61.9639 9.05667 62.0772 9.17L64.0772 11.17C64.1905 11.2767 64.2472 11.41 64.2472 11.57V15.67H58.9772L58.9172 16.9L60.2772 17.36L62.7572 17.58C62.8705 17.6 62.9272 17.68 62.9272 17.82V19.75C62.9272 19.9167 62.8439 20 62.6772 20H60.4272ZM60.0772 14.07H60.2572C60.5705 14.07 60.8205 13.9533 61.0072 13.72C61.2005 13.48 61.2972 13.1567 61.2972 12.75V12.57C61.2972 12.1633 61.2005 11.8433 61.0072 11.61C60.8205 11.3767 60.5705 11.26 60.2572 11.26H60.0672C59.7605 11.26 59.5139 11.3767 59.3272 11.61C59.1405 11.8433 59.0472 12.1633 59.0472 12.57V12.75C59.0472 13.1567 59.1405 13.48 59.3272 13.72C59.5139 13.9533 59.7639 14.07 60.0772 14.07Z" fill="black"/>
<path d="M66.392 20C66.2254 20 66.142 19.9167 66.142 19.75V10.48C66.142 10.3933 66.1754 10.2933 66.242 10.18L68.612 6.82C68.6854 6.72 68.792 6.67 68.932 6.67H72.262C72.4087 6.67 72.5154 6.72 72.582 6.82L74.962 10.18C75.0287 10.2733 75.062 10.3733 75.062 10.48V19.75C75.062 19.9167 74.9787 20 74.812 20H71.902C71.7354 20 71.652 19.9167 71.652 19.75V15.55H69.562V19.75C69.562 19.9167 69.4787 20 69.312 20H66.392ZM70.602 13.27C71.182 13.27 71.5787 13.14 71.792 12.88C72.0054 12.6133 72.112 12.1267 72.112 11.42C72.112 10.7067 72.0054 10.22 71.792 9.96C71.5787 9.7 71.182 9.57 70.602 9.57C70.0287 9.57 69.6354 9.7 69.422 9.96C69.2087 10.22 69.102 10.7067 69.102 11.42C69.102 12.1267 69.2087 12.6133 69.422 12.88C69.6354 13.14 70.0287 13.27 70.602 13.27ZM79.8267 20C79.6667 20 79.5334 19.9433 79.4267 19.83L77.4267 17.83C77.3134 17.7233 77.2567 17.59 77.2567 17.43V9.25C77.2567 9.08333 77.3401 9 77.5067 9H80.2267C80.3934 9 80.4767 9.08333 80.4767 9.25V16.92C80.4767 17.2267 80.6301 17.38 80.9367 17.38H82.2067V9.25C82.2067 9.08333 82.2901 9 82.4567 9H85.1767C85.3434 9 85.4267 9.08333 85.4267 9.25V19.75C85.4267 19.9167 85.3434 20 85.1767 20H79.8267ZM89.9288 20C89.7754 20 89.6421 19.9433 89.5288 19.83L87.8588 18.17C87.7521 18.0567 87.6988 17.9233 87.6988 17.77V11.43H87.2788C87.1121 11.43 87.0288 11.3467 87.0288 11.18V9.25C87.0288 9.08333 87.1121 9 87.2788 9H87.6988V7.75C87.6988 7.58333 87.7821 7.5 87.9488 7.5H90.6588C90.8254 7.5 90.9088 7.58333 90.9088 7.75V9H91.8788C92.0454 9 92.1288 9.08333 92.1288 9.25V11.18C92.1288 11.3467 92.0454 11.43 91.8788 11.43H90.9088V16.63C90.9088 16.7633 90.9488 16.87 91.0288 16.95L92.0088 17.93C92.0754 17.9967 92.1088 18.0967 92.1088 18.23V19.75C92.1088 19.9167 92.0254 20 91.8588 20H89.9288ZM94.0497 20C93.883 20 93.7997 19.9167 93.7997 19.75V6.92C93.7997 6.75333 93.883 6.67 94.0497 6.67H96.7697C96.9364 6.67 97.0197 6.75333 97.0197 6.92V9H99.3997C99.553 9 99.6864 9.05667 99.7997 9.17L101.8 11.17C101.913 11.2767 101.97 11.41 101.97 11.57V19.75C101.97 19.9167 101.886 20 101.72 20H98.9997C98.833 20 98.7497 19.9167 98.7497 19.75V12.04C98.7497 11.76 98.6097 11.62 98.3297 11.62H97.0197V19.75C97.0197 19.9167 96.9364 20 96.7697 20H94.0497ZM108.572 20C108.505 20 108.435 19.99 108.362 19.97C108.288 19.95 108.218 19.9333 108.152 19.92L106.372 19.44L104.352 18.74C104.165 18.6733 104.072 18.4867 104.072 18.18V11.57C104.072 11.41 104.128 11.2767 104.242 11.17L106.242 9.17C106.355 9.05667 106.488 9 106.642 9H109.822C109.975 9 110.108 9.05667 110.222 9.17L112.222 11.17C112.335 11.2767 112.392 11.41 112.392 11.57V15.67H107.122L107.062 16.9L108.422 17.36L110.902 17.58C111.015 17.6 111.072 17.68 111.072 17.82V19.75C111.072 19.9167 110.988 20 110.822 20H108.572ZM108.222 14.07H108.402C108.715 14.07 108.965 13.9533 109.152 13.72C109.345 13.48 109.442 13.1567 109.442 12.75V12.57C109.442 12.1633 109.345 11.8433 109.152 11.61C108.965 11.3767 108.715 11.26 108.402 11.26H108.212C107.905 11.26 107.658 11.3767 107.472 11.61C107.285 11.8433 107.192 12.1633 107.192 12.57V12.75C107.192 13.1567 107.285 13.48 107.472 13.72C107.658 13.9533 107.908 14.07 108.222 14.07ZM114.597 20C114.43 20 114.347 19.9167 114.347 19.75V9.25C114.347 9.08333 114.43 9 114.597 9H119.947C120.1 9 120.233 9.05667 120.347 9.17L122.347 11.17C122.46 11.2767 122.517 11.41 122.517 11.57V19.75C122.517 19.9167 122.433 20 122.267 20H119.547C119.38 20 119.297 19.9167 119.297 19.75V12.08C119.297 11.7733 119.14 11.62 118.827 11.62H117.567V19.75C117.567 19.9167 117.483 20 117.317 20H114.597ZM127.019 20C126.865 20 126.732 19.9433 126.619 19.83L124.949 18.17C124.842 18.0567 124.789 17.9233 124.789 17.77V11.43H124.369C124.202 11.43 124.119 11.3467 124.119 11.18V9.25C124.119 9.08333 124.202 9 124.369 9H124.789V7.75C124.789 7.58333 124.872 7.5 125.039 7.5H127.749C127.915 7.5 127.999 7.58333 127.999 7.75V9H128.969C129.135 9 129.219 9.08333 129.219 9.25V11.18C129.219 11.3467 129.135 11.43 128.969 11.43H127.999V16.63C127.999 16.7633 128.039 16.87 128.119 16.95L129.099 17.93C129.165 17.9967 129.199 18.0967 129.199 18.23V19.75C129.199 19.9167 129.115 20 128.949 20H127.019ZM131.14 20C130.973 20 130.89 19.9167 130.89 19.75V9.25C130.89 9.08333 130.973 9 131.14 9H133.85C134.016 9 134.1 9.08333 134.1 9.25V19.75C134.1 19.9167 134.016 20 133.85 20H131.14ZM131.09 8.17C130.956 8.17 130.89 8.10333 130.89 7.97V6.7C130.89 6.56667 130.956 6.5 131.09 6.5H133.92C134.04 6.5 134.1 6.56667 134.1 6.7V7.97C134.1 8.10333 134.04 8.17 133.92 8.17H131.09ZM139.49 20C139.357 20 139.223 19.9567 139.09 19.87L137.51 18.77L136.39 17.03C136.337 16.9433 136.293 16.8867 136.26 16.86C136.233 16.8267 136.22 16.7567 136.22 16.65V12.35C136.22 12.2433 136.23 12.1733 136.25 12.14C136.277 12.1067 136.323 12.0467 136.39 11.96L137.42 10.32L139.09 9.13C139.15 9.09 139.21 9.06 139.27 9.04C139.33 9.01333 139.403 9 139.49 9H141.29C141.457 9 141.54 9.08333 141.54 9.25V11.21C141.54 11.2633 141.533 11.32 141.52 11.38C141.513 11.4333 141.48 11.48 141.42 11.52L140.32 12.11L139.45 13.22V15.75L140.36 16.77L141.42 17.48C141.487 17.5267 141.523 17.5767 141.53 17.63C141.537 17.6833 141.54 17.7367 141.54 17.79V19.75C141.54 19.9167 141.457 20 141.29 20H139.49ZM145.939 20C145.785 20 145.652 19.9433 145.539 19.83L143.539 17.83C143.425 17.7233 143.369 17.59 143.369 17.43V11.57C143.369 11.41 143.425 11.2767 143.539 11.17L145.539 9.17C145.652 9.05667 145.785 9 145.939 9H151.289C151.455 9 151.539 9.08333 151.539 9.25V19.75C151.539 19.9167 151.455 20 151.289 20H149.159C149.072 20 149.005 19.9833 148.959 19.95C148.912 19.9167 148.862 19.8767 148.809 19.83L148.309 19.33L147.809 19.83C147.702 19.9433 147.569 20 147.409 20H145.939ZM147.139 17.57H147.769C147.975 17.57 148.115 17.5267 148.189 17.44C148.269 17.3533 148.309 17.2033 148.309 16.99V11.43H147.139C146.932 11.43 146.789 11.4733 146.709 11.56C146.629 11.6467 146.589 11.7967 146.589 12.01V16.99C146.589 17.2033 146.625 17.3533 146.699 17.44C146.779 17.5267 146.925 17.57 147.139 17.57ZM156.042 20C155.889 20 155.755 19.9433 155.642 19.83L153.972 18.17C153.865 18.0567 153.812 17.9233 153.812 17.77V11.43H153.392C153.225 11.43 153.142 11.3467 153.142 11.18V9.25C153.142 9.08333 153.225 9 153.392 9H153.812V7.75C153.812 7.58333 153.895 7.5 154.062 7.5H156.772C156.939 7.5 157.022 7.58333 157.022 7.75V9H157.992C158.159 9 158.242 9.08333 158.242 9.25V11.18C158.242 11.3467 158.159 11.43 157.992 11.43H157.022V16.63C157.022 16.7633 157.062 16.87 157.142 16.95L158.122 17.93C158.189 17.9967 158.222 18.0967 158.222 18.23V19.75C158.222 19.9167 158.139 20 157.972 20H156.042ZM162.423 20C162.27 20 162.136 19.9433 162.023 19.83L160.023 17.83C159.91 17.7233 159.853 17.59 159.853 17.43V11.57C159.853 11.41 159.91 11.2767 160.023 11.17L162.023 9.17C162.136 9.05667 162.27 9 162.423 9H165.453C165.613 9 165.746 9.05667 165.853 9.17L167.853 11.17C167.966 11.2767 168.023 11.41 168.023 11.57V17.43C168.023 17.59 167.966 17.7233 167.853 17.83L165.853 19.83C165.746 19.9433 165.613 20 165.453 20H162.423ZM163.623 17.57H164.253C164.46 17.57 164.6 17.5267 164.673 17.44C164.753 17.3533 164.793 17.2033 164.793 16.99V12.01C164.793 11.7967 164.753 11.6467 164.673 11.56C164.6 11.4733 164.46 11.43 164.253 11.43H163.623C163.41 11.43 163.263 11.4733 163.183 11.56C163.11 11.6467 163.073 11.7967 163.073 12.01V16.99C163.073 17.2033 163.11 17.3533 163.183 17.44C163.263 17.5267 163.41 17.57 163.623 17.57ZM170.436 20C170.27 20 170.186 19.9167 170.186 19.75V9.25C170.186 9.08333 170.27 9 170.436 9H172.066C172.193 9 172.303 9.05667 172.396 9.17L173.326 10.23L174.366 9.12C174.44 9.04 174.533 9 174.646 9H175.696C175.863 9 175.946 9.08333 175.946 9.25V11.53C175.946 11.6367 175.936 11.71 175.916 11.75C175.903 11.7833 175.866 11.82 175.806 11.86L173.406 13.62V19.75C173.406 19.9167 173.323 20 173.156 20H170.436Z" fill="#FF8C39"/>
<path fill-rule="evenodd" clip-rule="evenodd" d="M16.3864 22.5002C16.426 22.4749 16.4643 22.4475 16.5011 22.4183C16.5864 22.3514 16.6913 22.2522 16.8159 22.1209C17.0645 21.8569 17.3662 21.4779 17.6845 20.9955C18.4773 19.7639 19.0806 18.4202 19.4742 17.0093C20.4155 13.7042 20.5231 9.20397 17.7352 4.19452C17.6746 4.08731 17.5849 3.99934 17.4766 3.94069C17.3682 3.88204 17.2456 3.85507 17.1226 3.86287C16.1879 3.91821 14.6163 4.02762 13.0859 4.19716C11.5233 4.3706 10.113 4.59863 9.43767 4.86474L16.3864 22.5002ZM5.45961 5.68723C6.69174 4.76831 8.02538 3.85346 8.90295 3.50767C9.78053 3.16189 11.3798 2.92112 12.9076 2.75258C14.4697 2.57788 16.0708 2.46861 17.0154 2.41231C17.4108 2.39 17.8045 2.47968 18.1513 2.67105C18.498 2.86243 18.7837 3.14774 18.9756 3.4942C21.9772 8.8896 21.881 13.8027 20.8469 17.4353C20.4119 18.9859 19.7472 20.4627 18.8749 21.8165C18.5741 22.2854 18.2329 22.7271 17.8552 23.1366C17.5652 23.4448 17.2365 23.733 16.9211 23.8573C16.6057 23.9815 16.17 23.9945 15.7465 23.9675C15.191 23.9256 14.6402 23.8354 14.1004 23.6977C12.539 23.3029 11.0456 22.6765 9.66985 21.8393C6.43569 19.8885 3.01396 16.3615 1.52839 10.3688C1.43237 9.98454 1.44668 9.58101 1.56969 9.20454C1.6927 8.82807 1.9194 8.49394 2.22377 8.24052C3.28186 7.36373 4.36078 6.51239 5.45961 5.68723Z" fill="#FF8C39"/>
</svg>
